<svg width="332" height="86" viewBox="0 0 332 86" fill="none" xmlns="http://www.w3.org/2000/svg">
<path d="M98.0063 77.238C96.8677 77.238 95.911 77.0093 95.1363 76.552C94.3617 76.0947 93.7783 75.4507 93.3863 74.62C93.0037 73.7893 92.8123 72.8187 92.8123 71.708C92.8123 70.6627 93.0037 69.7247 93.3863 68.894C93.769 68.0633 94.3477 67.4053 95.1223 66.92C95.9063 66.4347 96.8677 66.192 98.0063 66.192C98.501 66.192 98.9397 66.234 99.3223 66.318C99.7143 66.3927 100.134 66.5233 100.582 66.71V67.956C99.789 67.5733 98.9397 67.382 98.0343 67.382C97.2503 67.382 96.569 67.5687 95.9903 67.942C95.4117 68.306 94.9683 68.8193 94.6603 69.482C94.3523 70.1353 94.203 70.8773 94.2123 71.708C94.2123 72.5667 94.3617 73.3227 94.6603 73.976C94.959 74.6293 95.393 75.138 95.9623 75.502C96.5317 75.866 97.213 76.048 98.0063 76.048C98.501 76.048 98.9863 75.978 99.4623 75.838C99.9477 75.698 100.456 75.4973 100.988 75.236L101.422 76.384C100.881 76.664 100.312 76.874 99.7143 77.014C99.117 77.1633 98.5477 77.238 98.0063 77.238ZM106.519 77.238C105.698 77.238 104.998 77.0607 104.419 76.706C103.85 76.342 103.42 75.852 103.131 75.236C102.842 74.6107 102.697 73.9107 102.697 73.136C102.697 72.3613 102.842 71.666 103.131 71.05C103.42 70.4247 103.85 69.9347 104.419 69.58C104.998 69.216 105.698 69.034 106.519 69.034C107.34 69.034 108.036 69.216 108.605 69.58C109.184 69.9347 109.613 70.4247 109.893 71.05C110.182 71.666 110.327 72.3613 110.327 73.136C110.327 73.9107 110.182 74.6107 109.893 75.236C109.613 75.852 109.184 76.342 108.605 76.706C108.036 77.0607 107.34 77.238 106.519 77.238ZM106.519 76.048C107.294 76.048 107.891 75.7773 108.311 75.236C108.74 74.6947 108.955 73.9947 108.955 73.136C108.955 72.2773 108.74 71.582 108.311 71.05C107.891 70.5087 107.294 70.238 106.519 70.238C105.744 70.238 105.142 70.5087 104.713 71.05C104.284 71.582 104.069 72.2773 104.069 73.136C104.069 73.9947 104.284 74.6947 104.713 75.236C105.142 75.7773 105.744 76.048 106.519 76.048ZM121.082 69.09C122.025 69.09 122.72 69.342 123.168 69.846C123.626 70.35 123.854 71.1807 123.854 72.338V77H122.538V72.338C122.538 71.6007 122.417 71.0827 122.174 70.784C121.941 70.476 121.516 70.322 120.9 70.322C120.172 70.322 119.444 70.672 118.716 71.372C118.754 71.6333 118.772 71.9553 118.772 72.338V77H117.456V72.338C117.456 71.6007 117.335 71.0827 117.092 70.784C116.859 70.476 116.434 70.322 115.818 70.322C115.109 70.322 114.4 70.6393 113.69 71.274V77H112.374V69.258H113.69V70.084C114.446 69.4213 115.216 69.09 116 69.09C116.626 69.09 117.139 69.1973 117.54 69.412C117.942 69.6173 118.245 69.9487 118.45 70.406C119.3 69.5287 120.177 69.09 121.082 69.09ZM129.616 69.034C130.661 69.034 131.492 69.384 132.108 70.084C132.733 70.784 133.046 71.8013 133.046 73.136C133.046 74.4707 132.733 75.488 132.108 76.188C131.492 76.888 130.661 77.238 129.616 77.238C128.86 77.238 128.113 76.9253 127.376 76.3V80.276H126.06V69.258H127.376V69.986C128.122 69.3513 128.869 69.034 129.616 69.034ZM129.434 76.02C130.171 76.02 130.731 75.7773 131.114 75.292C131.496 74.7973 131.688 74.0787 131.688 73.136C131.688 72.1933 131.496 71.4793 131.114 70.994C130.731 70.5087 130.171 70.266 129.434 70.266C128.734 70.266 128.048 70.5553 127.376 71.134V75.152C128.066 75.7307 128.752 76.02 129.434 76.02ZM137.491 69.258C138.312 69.258 138.937 69.398 139.367 69.678C139.796 69.9487 140.081 70.3173 140.221 70.784C140.361 71.2413 140.431 71.82 140.431 72.52V77H139.115V76.23C138.76 76.566 138.405 76.8087 138.051 76.958C137.696 77.1073 137.313 77.182 136.903 77.182C136.417 77.182 135.979 77.0793 135.587 76.874C135.195 76.6593 134.882 76.356 134.649 75.964C134.425 75.5627 134.313 75.0913 134.313 74.55C134.313 73.71 134.574 73.0613 135.097 72.604C135.619 72.1373 136.324 71.904 137.211 71.904C137.911 71.904 138.541 72.058 139.101 72.366C139.091 71.9087 139.045 71.5447 138.961 71.274C138.877 71.0033 138.704 70.798 138.443 70.658C138.181 70.5087 137.794 70.434 137.281 70.434H136.245V69.258H137.491ZM137.085 76.048C137.402 76.048 137.733 75.9733 138.079 75.824C138.433 75.6747 138.779 75.4507 139.115 75.152V73.388C138.592 73.1267 138.023 72.996 137.407 72.996C136.912 72.996 136.497 73.1173 136.161 73.36C135.825 73.5933 135.657 73.99 135.657 74.55C135.657 75.0727 135.797 75.4553 136.077 75.698C136.366 75.9313 136.702 76.048 137.085 76.048ZM146.579 69.09V70.322H146.257C145.454 70.322 144.675 70.644 143.919 71.288V77H142.603V69.258H143.919V70.126C144.684 69.4353 145.463 69.09 146.257 69.09H146.579ZM149.159 73.234C149.178 74.0927 149.392 74.7787 149.803 75.292C150.214 75.8053 150.867 76.062 151.763 76.062C152.444 76.062 153.191 75.8707 154.003 75.488L154.409 76.58C153.56 77.0187 152.64 77.238 151.651 77.238C150.83 77.238 150.13 77.0653 149.551 76.72C148.972 76.3747 148.534 75.894 148.235 75.278C147.936 74.662 147.787 73.9433 147.787 73.122C147.787 72.254 147.941 71.5167 148.249 70.91C148.566 70.294 148.991 69.8273 149.523 69.51C150.055 69.1927 150.652 69.034 151.315 69.034C152.332 69.034 153.13 69.3513 153.709 69.986C154.288 70.6207 154.577 71.5307 154.577 72.716V73.234H149.159ZM151.315 70.21C150.158 70.21 149.467 70.8493 149.243 72.128H153.191C153.144 71.4747 152.967 70.994 152.659 70.686C152.351 70.3687 151.903 70.21 151.315 70.21ZM169.665 66.388V77H168.307V68.446L165.059 72.968H164.345L161.125 68.446V77H159.767V66.388H161.251L164.709 71.232L168.167 66.388H169.665ZM175.767 77.238C174.946 77.238 174.246 77.0607 173.667 76.706C173.098 76.342 172.668 75.852 172.379 75.236C172.09 74.6107 171.945 73.9107 171.945 73.136C171.945 72.3613 172.09 71.666 172.379 71.05C172.668 70.4247 173.098 69.9347 173.667 69.58C174.246 69.216 174.946 69.034 175.767 69.034C176.588 69.034 177.284 69.216 177.853 69.58C178.432 69.9347 178.861 70.4247 179.141 71.05C179.43 71.666 179.575 72.3613 179.575 73.136C179.575 73.9107 179.43 74.6107 179.141 75.236C178.861 75.852 178.432 76.342 177.853 76.706C177.284 77.0607 176.588 77.238 175.767 77.238ZM175.767 76.048C176.542 76.048 177.139 75.7773 177.559 75.236C177.988 74.6947 178.203 73.9947 178.203 73.136C178.203 72.2773 177.988 71.582 177.559 71.05C177.139 70.5087 176.542 70.238 175.767 70.238C174.992 70.238 174.39 70.5087 173.961 71.05C173.532 71.582 173.317 72.2773 173.317 73.136C173.317 73.9947 173.532 74.6947 173.961 75.236C174.39 75.7773 174.992 76.048 175.767 76.048ZM188.034 69.258L185.108 77.126H183.596L180.642 69.258H182.014L184.352 75.67L186.662 69.258H188.034ZM189.579 65.688H190.895V67.802H189.579V65.688ZM189.579 69.258H190.895V77H189.579V69.258ZM194.317 73.234C194.336 74.0927 194.55 74.7787 194.961 75.292C195.372 75.8053 196.025 76.062 196.921 76.062C197.602 76.062 198.349 75.8707 199.161 75.488L199.567 76.58C198.718 77.0187 197.798 77.238 196.809 77.238C195.988 77.238 195.288 77.0653 194.709 76.72C194.13 76.3747 193.692 75.894 193.393 75.278C193.094 74.662 192.945 73.9433 192.945 73.122C192.945 72.254 193.099 71.5167 193.407 70.91C193.724 70.294 194.149 69.8273 194.681 69.51C195.213 69.1927 195.81 69.034 196.473 69.034C197.49 69.034 198.288 69.3513 198.867 69.986C199.446 70.6207 199.735 71.5307 199.735 72.716V73.234H194.317ZM196.473 70.21C195.316 70.21 194.625 70.8493 194.401 72.128H198.349C198.302 71.4747 198.125 70.994 197.817 70.686C197.509 70.3687 197.061 70.21 196.473 70.21ZM203.963 77.238C203.393 77.238 202.889 77.1913 202.451 77.098C202.012 77.0047 201.555 76.846 201.079 76.622V75.32C201.965 75.8147 202.927 76.062 203.963 76.062C204.485 76.062 204.859 75.9593 205.083 75.754C205.316 75.5393 205.433 75.2593 205.433 74.914C205.433 74.578 205.339 74.3307 205.153 74.172C204.975 74.0133 204.681 73.878 204.271 73.766L203.361 73.542C202.707 73.3833 202.194 73.1313 201.821 72.786C201.447 72.4407 201.261 71.932 201.261 71.26C201.261 70.56 201.489 70.014 201.947 69.622C202.404 69.23 203.076 69.034 203.963 69.034C204.42 69.034 204.845 69.0807 205.237 69.174C205.629 69.258 206.021 69.3793 206.413 69.538V70.77C206.03 70.5927 205.652 70.4573 205.279 70.364C204.905 70.2613 204.481 70.21 204.005 70.21C203.51 70.21 203.151 70.308 202.927 70.504C202.712 70.6907 202.605 70.9287 202.605 71.218C202.605 71.5353 202.698 71.778 202.885 71.946C203.081 72.1047 203.361 72.2307 203.725 72.324L204.649 72.534C205.115 72.646 205.498 72.786 205.797 72.954C206.105 73.122 206.343 73.36 206.511 73.668C206.688 73.9667 206.777 74.368 206.777 74.872C206.777 75.628 206.52 76.2113 206.007 76.622C205.503 77.0327 204.821 77.238 203.963 77.238ZM215.434 69.034C216.479 69.034 217.31 69.384 217.926 70.084C218.551 70.784 218.864 71.8013 218.864 73.136C218.864 74.4707 218.551 75.488 217.926 76.188C217.31 76.888 216.479 77.238 215.434 77.238C214.678 77.238 213.931 76.9253 213.194 76.3V77H211.878V65.156H213.194V69.986C213.941 69.3513 214.687 69.034 215.434 69.034ZM215.252 76.02C215.989 76.02 216.549 75.7773 216.932 75.292C217.315 74.7973 217.506 74.0787 217.506 73.136C217.506 72.1933 217.315 71.4793 216.932 70.994C216.549 70.5087 215.989 70.266 215.252 70.266C214.552 70.266 213.866 70.5553 213.194 71.134V75.152C213.885 75.7307 214.571 76.02 215.252 76.02ZM227.159 69.258L223.729 78.246C223.486 78.8807 223.267 79.352 223.071 79.66C222.875 79.968 222.642 80.1873 222.371 80.318C222.11 80.4487 221.746 80.514 221.279 80.514C221.008 80.514 220.733 80.4767 220.453 80.402V79.212C220.696 79.268 220.938 79.296 221.181 79.296C221.498 79.296 221.746 79.2027 221.923 79.016C222.11 78.8293 222.31 78.4607 222.525 77.91L222.889 76.972L219.949 69.258H221.321L223.547 75.25L225.829 69.258H227.159ZM232.009 66.388H233.367V77H232.009V66.388ZM246.254 66.388V77H244.896V68.446L241.648 72.968H240.934L237.714 68.446V77H236.356V66.388H237.84L241.298 71.232L244.756 66.388H246.254ZM252.777 66.388C254.522 66.388 255.838 66.8407 256.725 67.746C257.621 68.642 258.069 69.9627 258.069 71.708C258.069 73.4627 257.626 74.7833 256.739 75.67C255.852 76.5567 254.532 77 252.777 77H249.249V66.388H252.777ZM256.669 71.666C256.669 70.266 256.342 69.2347 255.689 68.572C255.036 67.9093 254.065 67.578 252.777 67.578H250.607V75.81H252.777C254.074 75.81 255.045 75.4787 255.689 74.816C256.342 74.1533 256.669 73.1033 256.669 71.666ZM265.95 71.61C267.219 72.0207 267.854 72.8607 267.854 74.13C267.854 75.1007 267.56 75.824 266.972 76.3C266.393 76.7667 265.422 77 264.06 77H260.392V66.388H264.06C265.301 66.388 266.174 66.6213 266.678 67.088C267.182 67.5547 267.434 68.2687 267.434 69.23C267.434 69.7993 267.312 70.2847 267.07 70.686C266.836 71.078 266.463 71.386 265.95 71.61ZM261.75 71.106H264.06C265.376 71.106 266.038 70.5133 266.048 69.328C266.048 68.6747 265.903 68.2127 265.614 67.942C265.324 67.6713 264.806 67.536 264.06 67.536H261.75V71.106ZM266.468 74.046C266.468 73.4207 266.262 72.968 265.852 72.688C265.45 72.3987 264.853 72.254 264.06 72.254H261.75V75.852H264.06C264.937 75.852 265.558 75.7073 265.922 75.418C266.286 75.1287 266.468 74.6713 266.468 74.046ZM275.508 77.238C274.938 77.238 274.434 77.1913 273.996 77.098C273.557 77.0047 273.1 76.846 272.624 76.622V75.32C273.51 75.8147 274.472 76.062 275.508 76.062C276.03 76.062 276.404 75.9593 276.628 75.754C276.861 75.5393 276.978 75.2593 276.978 74.914C276.978 74.578 276.884 74.3307 276.698 74.172C276.52 74.0133 276.226 73.878 275.816 73.766L274.906 73.542C274.252 73.3833 273.739 73.1313 273.366 72.786C272.992 72.4407 272.806 71.932 272.806 71.26C272.806 70.56 273.034 70.014 273.492 69.622C273.949 69.23 274.621 69.034 275.508 69.034C275.965 69.034 276.39 69.0807 276.782 69.174C277.174 69.258 277.566 69.3793 277.958 69.538V70.77C277.575 70.5927 277.197 70.4573 276.824 70.364C276.45 70.2613 276.026 70.21 275.55 70.21C275.055 70.21 274.696 70.308 274.472 70.504C274.257 70.6907 274.15 70.9287 274.15 71.218C274.15 71.5353 274.243 71.778 274.43 71.946C274.626 72.1047 274.906 72.2307 275.27 72.324L276.194 72.534C276.66 72.646 277.043 72.786 277.342 72.954C277.65 73.122 277.888 73.36 278.056 73.668C278.233 73.9667 278.322 74.368 278.322 74.872C278.322 75.628 278.065 76.2113 277.552 76.622C277.048 77.0327 276.366 77.238 275.508 77.238ZM283.623 77.238C282.419 77.2287 281.49 76.8553 280.837 76.118C280.193 75.3807 279.871 74.382 279.871 73.122C279.871 71.862 280.193 70.868 280.837 70.14C281.49 69.412 282.419 69.0433 283.623 69.034C284.043 69.034 284.402 69.0667 284.701 69.132C285.009 69.188 285.336 69.286 285.681 69.426V70.7C285.345 70.5413 285.023 70.4293 284.715 70.364C284.416 70.2987 284.085 70.266 283.721 70.266C282.853 70.2753 282.223 70.5367 281.831 71.05C281.439 71.554 281.243 72.24 281.243 73.108C281.243 73.9947 281.439 74.6993 281.831 75.222C282.223 75.7447 282.844 76.0107 283.693 76.02C284.356 76.02 285.079 75.8193 285.863 75.418L286.283 76.566C285.434 77.014 284.547 77.238 283.623 77.238ZM291.335 77.238C290.514 77.238 289.814 77.0607 289.235 76.706C288.666 76.342 288.237 75.852 287.947 75.236C287.658 74.6107 287.513 73.9107 287.513 73.136C287.513 72.3613 287.658 71.666 287.947 71.05C288.237 70.4247 288.666 69.9347 289.235 69.58C289.814 69.216 290.514 69.034 291.335 69.034C292.157 69.034 292.852 69.216 293.421 69.58C294 69.9347 294.429 70.4247 294.709 71.05C294.999 71.666 295.143 72.3613 295.143 73.136C295.143 73.9107 294.999 74.6107 294.709 75.236C294.429 75.852 294 76.342 293.421 76.706C292.852 77.0607 292.157 77.238 291.335 77.238ZM291.335 76.048C292.11 76.048 292.707 75.7773 293.127 75.236C293.557 74.6947 293.771 73.9947 293.771 73.136C293.771 72.2773 293.557 71.582 293.127 71.05C292.707 70.5087 292.11 70.238 291.335 70.238C290.561 70.238 289.959 70.5087 289.529 71.05C289.1 71.582 288.885 72.2773 288.885 73.136C288.885 73.9947 289.1 74.6947 289.529 75.236C289.959 75.7773 290.561 76.048 291.335 76.048ZM301.167 69.09V70.322H300.845C300.042 70.322 299.263 70.644 298.507 71.288V77H297.191V69.258H298.507V70.126C299.272 69.4353 300.051 69.09 300.845 69.09H301.167ZM303.747 73.234C303.765 74.0927 303.98 74.7787 304.391 75.292C304.801 75.8053 305.455 76.062 306.351 76.062C307.032 76.062 307.779 75.8707 308.591 75.488L308.997 76.58C308.147 77.0187 307.228 77.238 306.239 77.238C305.417 77.238 304.717 77.0653 304.139 76.72C303.56 76.3747 303.121 75.894 302.823 75.278C302.524 74.662 302.375 73.9433 302.375 73.122C302.375 72.254 302.529 71.5167 302.837 70.91C303.154 70.294 303.579 69.8273 304.111 69.51C304.643 69.1927 305.24 69.034 305.903 69.034C306.92 69.034 307.718 69.3513 308.297 69.986C308.875 70.6207 309.165 71.5307 309.165 72.716V73.234H303.747ZM305.903 70.21C304.745 70.21 304.055 70.8493 303.831 72.128H307.779C307.732 71.4747 307.555 70.994 307.247 70.686C306.939 70.3687 306.491 70.21 305.903 70.21ZM313.392 77.238C312.823 77.238 312.319 77.1913 311.88 77.098C311.442 77.0047 310.984 76.846 310.508 76.622V75.32C311.395 75.8147 312.356 76.062 313.392 76.062C313.915 76.062 314.288 75.9593 314.512 75.754C314.746 75.5393 314.862 75.2593 314.862 74.914C314.862 74.578 314.769 74.3307 314.582 74.172C314.405 74.0133 314.111 73.878 313.7 73.766L312.79 73.542C312.137 73.3833 311.624 73.1313 311.25 72.786C310.877 72.4407 310.69 71.932 310.69 71.26C310.69 70.56 310.919 70.014 311.376 69.622C311.834 69.23 312.506 69.034 313.392 69.034C313.85 69.034 314.274 69.0807 314.666 69.174C315.058 69.258 315.45 69.3793 315.842 69.538V70.77C315.46 70.5927 315.082 70.4573 314.708 70.364C314.335 70.2613 313.91 70.21 313.434 70.21C312.94 70.21 312.58 70.308 312.356 70.504C312.142 70.6907 312.034 70.9287 312.034 71.218C312.034 71.5353 312.128 71.778 312.314 71.946C312.51 72.1047 312.79 72.2307 313.154 72.324L314.078 72.534C314.545 72.646 314.928 72.786 315.226 72.954C315.534 73.122 315.772 73.36 315.94 73.668C316.118 73.9667 316.206 74.368 316.206 74.872C316.206 75.628 315.95 76.2113 315.436 76.622C314.932 77.0327 314.251 77.238 313.392 77.238Z" fill="#007DB8"/>
<path d="M222.089 56.064C223.369 50.304 224.585 44.672 225.737 39.168C226.207 36.864 226.697 34.432 227.209 31.872C227.721 29.312 228.212 26.7947 228.681 24.32C229.151 21.8453 229.599 19.456 230.025 17.152C230.452 14.848 230.815 12.736 231.113 10.816C232.351 10.432 233.567 10.112 234.761 9.856C235.956 9.55733 237.172 9.30133 238.409 9.088C239.689 8.87466 240.884 8.768 241.993 8.768C243.913 8.768 245.513 9.088 246.793 9.728C248.116 10.368 249.183 11.2427 249.993 12.352C250.804 13.4187 251.38 14.6773 251.721 16.128C252.063 17.5787 252.233 19.136 252.233 20.8C252.233 23.1893 251.785 25.4933 250.889 27.712C250.036 29.9307 248.863 31.9147 247.369 33.664C245.919 35.3707 244.233 36.736 242.313 37.76C240.436 38.784 238.473 39.296 236.425 39.296H235.721C235.38 40.7467 235.06 42.3253 234.761 44.032C234.463 45.7387 234.207 47.3173 233.993 48.768C233.695 50.4747 233.417 52.1813 233.161 53.888L222.089 56.064ZM239.945 16.512C239.476 19.328 239.007 21.9947 238.537 24.512C238.068 27.0293 237.556 29.7173 237.001 32.576C237.684 32.4053 238.388 32.0213 239.113 31.424C239.881 30.784 240.585 29.9733 241.225 28.992C241.865 27.968 242.377 26.7947 242.761 25.472C243.145 24.1493 243.337 22.7627 243.337 21.312C243.337 19.7333 242.975 18.5387 242.249 17.728C241.567 16.9173 240.799 16.512 239.945 16.512ZM269.333 54.72C268.267 54.8907 267.093 55.0827 265.813 55.296C264.533 55.5093 263.381 55.7013 262.357 55.872C262.528 54.464 262.699 53.0773 262.869 51.712C262.997 50.5173 263.104 49.3227 263.189 48.128C263.317 46.9333 263.424 45.9093 263.509 45.056H257.941L255.381 54.272C254.443 54.4 253.333 54.5493 252.053 54.72C250.773 54.848 249.579 54.976 248.469 55.104C247.104 55.2747 245.76 55.4453 244.437 55.616C246.144 49.9413 247.829 44.352 249.493 38.848C250.176 36.544 250.88 34.1333 251.605 31.616C252.373 29.0987 253.12 26.6027 253.845 24.128C254.613 21.6107 255.339 19.2 256.021 16.896C256.704 14.592 257.301 12.48 257.813 10.56C260.715 10.3467 263.659 10.0907 266.645 9.792C269.675 9.49333 272.619 9.088 275.477 8.576C275.349 9.94133 275.2 11.648 275.029 13.696C274.901 15.7013 274.773 17.8987 274.645 20.288C274.517 22.6773 274.389 25.1733 274.261 27.776C274.133 30.3787 274.005 32.9387 273.877 35.456C273.664 41.344 273.429 47.5947 273.173 54.208C271.893 54.4213 270.613 54.592 269.333 54.72ZM259.477 38.656C259.648 38.656 259.947 38.656 260.373 38.656C260.843 38.6133 261.312 38.592 261.781 38.592C262.293 38.5493 262.763 38.528 263.189 38.528C263.616 38.4853 263.915 38.4427 264.085 38.4C264.085 38.144 264.107 37.7173 264.149 37.12C264.235 36.48 264.299 35.776 264.341 35.008C264.427 34.1973 264.512 33.3227 264.597 32.384C264.683 31.4453 264.768 30.528 264.853 29.632C265.024 27.456 265.237 25.1093 265.493 22.592L265.877 17.024L264.917 17.088L263.445 22.592L259.477 38.656ZM273.725 56.064C274.877 50.3893 275.986 44.8427 277.053 39.424C277.437 37.12 277.863 34.7307 278.333 32.256C278.802 29.7387 279.229 27.264 279.613 24.832C280.039 22.3573 280.423 19.9893 280.765 17.728C281.149 15.424 281.447 13.3333 281.661 11.456C284.093 10.688 286.717 10.1333 289.533 9.792C292.349 9.408 295.143 9.216 297.917 9.216C299.581 9.216 300.946 9.408 302.013 9.792C303.122 10.176 303.975 10.7307 304.573 11.456C305.213 12.1387 305.661 12.9493 305.917 13.888C306.173 14.8267 306.301 15.872 306.301 17.024C306.301 18.7307 306.002 20.416 305.405 22.08C304.807 23.7013 303.997 25.2587 302.973 26.752C301.991 28.2027 300.839 29.5467 299.517 30.784C298.237 31.9787 296.85 32.96 295.357 33.728C296.125 35.4347 296.935 37.312 297.789 39.36C298.685 41.3653 299.517 43.2853 300.285 45.12C301.138 47.2533 302.013 49.3867 302.909 51.52L292.989 54.976C292.135 52.032 291.367 49.2587 290.685 46.656C290.386 45.5893 290.087 44.5013 289.789 43.392C289.49 42.24 289.213 41.1733 288.957 40.192C288.701 39.168 288.487 38.272 288.317 37.504C288.146 36.736 288.039 36.1387 287.997 35.712L287.165 35.968C286.909 37.3333 286.589 38.9973 286.205 40.96C285.863 42.9227 285.543 44.8213 285.245 46.656C284.861 48.832 284.477 51.072 284.093 53.376L273.725 56.064ZM288.765 28.288C289.575 28.2027 290.557 27.8613 291.709 27.264C292.903 26.6667 294.034 25.9627 295.101 25.152C296.167 24.2987 297.085 23.424 297.853 22.528C298.621 21.632 299.005 20.8427 299.005 20.16C299.005 19.6907 298.855 19.328 298.557 19.072C298.258 18.7733 297.831 18.56 297.277 18.432C296.765 18.2613 296.189 18.1547 295.549 18.112C294.909 18.0693 294.247 18.048 293.565 18.048C293.095 18.048 292.605 18.0693 292.093 18.112C291.623 18.112 291.197 18.112 290.813 18.112L288.765 28.288ZM302.418 56.064L310.802 10.56L331.026 8.832C330.728 9.77066 330.472 10.7307 330.258 11.712C330.045 12.5227 329.832 13.376 329.618 14.272C329.448 15.1253 329.298 15.8933 329.17 16.576C328.744 16.6187 328.125 16.6613 327.314 16.704C326.546 16.704 325.714 16.7253 324.818 16.768C323.922 16.768 323.005 16.768 322.066 16.768C321.17 16.768 320.381 16.768 319.698 16.768L317.458 28.224C318.781 28.1387 320.018 28.0747 321.17 28.032C322.109 27.9893 323.069 27.968 324.05 27.968C325.032 27.968 325.757 27.9467 326.226 27.904C326.056 29.0987 325.885 30.272 325.714 31.424C325.586 32.576 325.416 33.7493 325.202 34.944C324.776 34.9867 324.072 35.0293 323.09 35.072C322.152 35.072 321.192 35.0933 320.21 35.136C319.101 35.1787 317.885 35.2213 316.562 35.264L314.386 47.04L323.73 45.568L323.09 52.864L302.418 56.064Z" fill="#36BFB6"/>
<path d="M90.2362 55.616C92.1136 49.9413 93.9056 44.3733 95.6123 38.912C96.3376 36.608 97.0843 34.1973 97.8523 31.68C98.6203 29.1627 99.3883 26.6667 100.156 24.192C100.924 21.7173 101.628 19.328 102.268 17.024C102.951 14.72 103.548 12.5867 104.06 10.624C106.407 10.624 108.626 10.496 110.716 10.24C112.807 9.984 115.068 9.74933 117.5 9.536C117.372 10.4747 117.223 11.5413 117.052 12.736C116.924 13.888 116.754 15.104 116.54 16.384C116.37 17.664 116.178 18.9867 115.964 20.352C115.751 21.7173 115.495 23.4667 115.196 25.6C114.898 27.7333 114.492 30.4 113.98 33.6H114.812C116.05 30.3573 117.074 27.6693 117.884 25.536C118.695 23.36 119.356 21.5893 119.868 20.224C120.38 18.8587 120.892 17.536 121.404 16.256C121.959 14.9333 122.471 13.696 122.94 12.544C123.452 11.3493 123.922 10.304 124.348 9.408C125.415 9.32266 126.418 9.216 127.356 9.088C128.295 8.96 129.234 8.832 130.172 8.704C131.111 8.53333 132.05 8.384 132.988 8.256C133.97 8.08533 135.036 7.89333 136.188 7.68C135.762 10.1547 135.356 12.6933 134.972 15.296C134.588 17.8987 134.247 20.5013 133.948 23.104C133.65 25.664 133.351 28.2027 133.052 30.72C132.796 33.2373 132.562 35.6267 132.348 37.888C131.836 43.1787 131.388 48.3413 131.004 53.376L119.868 55.36C119.868 55.1467 119.89 54.5707 119.932 53.632C120.018 52.6933 120.103 51.5413 120.188 50.176C120.316 48.8107 120.466 47.296 120.636 45.632C120.85 43.968 121.042 42.304 121.212 40.64C121.426 38.976 121.639 37.376 121.852 35.84C122.066 34.2613 122.279 32.9173 122.492 31.808H121.916C121.319 33.6 120.658 35.4987 119.932 37.504C119.207 39.4667 118.46 41.472 117.692 43.52C116.967 45.568 116.242 47.5733 115.516 49.536C114.791 51.4987 114.151 53.376 113.596 55.168C112.103 55.2107 110.823 55.2747 109.756 55.36C108.69 55.4027 107.452 55.4667 106.044 55.552L108.092 31.808H107.132C107.047 32.3627 106.834 33.3013 106.492 34.624C106.151 35.904 105.746 37.3973 105.276 39.104C104.85 40.768 104.38 42.5173 103.868 44.352C103.356 46.144 102.866 47.8293 102.396 49.408C101.97 50.944 101.607 52.224 101.308 53.248C101.01 54.2293 100.839 54.784 100.796 54.912L90.2362 55.616ZM167.621 21.376C167.621 24.8747 167.237 28.1813 166.469 31.296C165.744 34.368 164.763 37.2053 163.525 39.808C162.288 42.368 160.837 44.672 159.173 46.72C157.552 48.7253 155.845 50.4533 154.053 51.904C152.261 53.312 150.448 54.4 148.613 55.168C146.779 55.8933 145.029 56.256 143.365 56.256C141.957 56.256 140.677 56 139.525 55.488C138.373 54.9333 137.371 54.144 136.517 53.12C135.664 52.0533 134.981 50.7093 134.469 49.088C134 47.424 133.765 45.44 133.765 43.136C133.765 40.7467 134.064 38.2293 134.661 35.584C135.259 32.9387 136.069 30.3147 137.093 27.712C138.117 25.1093 139.376 22.6347 140.869 20.288C142.363 17.9413 144.005 15.872 145.797 14.08C147.589 12.2453 149.509 10.7947 151.557 9.728C153.605 8.66133 155.739 8.128 157.957 8.128C159.877 8.128 161.456 8.53333 162.693 9.344C163.973 10.112 164.955 11.136 165.637 12.416C166.363 13.6533 166.875 15.0613 167.173 16.64C167.472 18.2187 167.621 19.7973 167.621 21.376ZM143.301 41.472C143.301 41.9413 143.387 42.432 143.557 42.944C143.728 43.456 143.963 43.904 144.261 44.288C144.56 44.672 144.923 45.0133 145.349 45.312C145.819 45.568 146.309 45.696 146.821 45.696C148.741 45.696 150.448 45.0347 151.941 43.712C153.435 42.3893 154.672 40.768 155.653 38.848C156.635 36.928 157.381 34.88 157.893 32.704C158.448 30.528 158.725 28.544 158.725 26.752C158.725 26.24 158.683 25.6853 158.597 25.088C158.555 24.4907 158.427 23.936 158.213 23.424C158.043 22.912 157.744 22.4853 157.317 22.144C156.933 21.76 156.4 21.568 155.717 21.568C154.352 21.568 153.093 21.9093 151.941 22.592C150.789 23.2747 149.744 24.192 148.805 25.344C147.909 26.4533 147.12 27.7333 146.437 29.184C145.755 30.592 145.157 32.0427 144.645 33.536C144.176 34.9867 143.835 36.416 143.621 37.824C143.408 39.232 143.301 40.448 143.301 41.472ZM166.745 56.576C167.299 50.6027 167.811 44.736 168.281 38.976C168.494 36.5867 168.686 34.0693 168.857 31.424C169.07 28.7787 169.241 26.176 169.369 23.616C169.539 21.0133 169.667 18.5173 169.753 16.128C169.838 13.696 169.902 11.4773 169.945 9.472C170.969 9.472 172.057 9.45066 173.209 9.408C174.403 9.36533 175.47 9.32266 176.409 9.28C177.39 9.23733 178.222 9.19467 178.905 9.152C179.587 9.06666 179.929 9.024 179.929 9.024C179.459 13.9733 179.054 18.048 178.713 21.248C178.371 24.4053 178.094 26.9867 177.881 28.992C177.71 30.9547 177.539 32.8533 177.369 34.688C177.241 36.5227 177.091 38.2293 176.921 39.808C176.75 41.3867 176.601 42.7307 176.473 43.84H177.625L184.793 9.792C185.945 9.74933 187.118 9.68533 188.313 9.6C189.379 9.51466 190.489 9.45066 191.641 9.408C192.835 9.36533 193.923 9.28 194.905 9.152C194.307 11.0293 193.689 13.0987 193.049 15.36C192.451 17.6213 191.811 19.968 191.129 22.4C190.489 24.832 189.849 27.3067 189.209 29.824C188.611 32.3413 188.014 34.7733 187.417 37.12C186.051 42.624 184.686 48.2773 183.321 54.08L166.745 56.576ZM197.331 54.72C196.947 54.72 196.2 54.784 195.091 54.912C193.981 54.9973 192.829 55.1253 191.635 55.296C190.44 55.424 189.352 55.552 188.371 55.68C187.432 55.808 186.92 55.8933 186.835 55.936C187.347 54.1013 187.859 52.0747 188.371 49.856C188.883 47.5947 189.395 45.248 189.907 42.816C190.461 40.3413 190.973 37.8453 191.443 35.328C191.955 32.8107 192.445 30.3787 192.915 28.032C193.981 22.5707 195.027 16.96 196.051 11.2L206.035 9.6C204.925 15.3173 203.816 20.928 202.707 26.432C202.237 28.7787 201.747 31.2107 201.235 33.728C200.765 36.2453 200.296 38.7413 199.827 41.216C199.4 43.6907 198.952 46.1013 198.483 48.448C198.056 50.752 197.672 52.8427 197.331 54.72ZM200.543 56.064L208.927 10.56L229.151 8.832C228.853 9.77066 228.597 10.7307 228.383 11.712C228.17 12.5227 227.957 13.376 227.743 14.272C227.573 15.1253 227.423 15.8933 227.295 16.576C226.869 16.6187 226.25 16.6613 225.439 16.704C224.671 16.704 223.839 16.7253 222.943 16.768C222.047 16.768 221.13 16.768 220.191 16.768C219.295 16.768 218.506 16.768 217.823 16.768L215.583 28.224C216.906 28.1387 218.143 28.0747 219.295 28.032C220.234 27.9893 221.194 27.968 222.175 27.968C223.157 27.968 223.882 27.9467 224.351 27.904C224.181 29.0987 224.01 30.272 223.839 31.424C223.711 32.576 223.541 33.7493 223.327 34.944C222.901 34.9867 222.197 35.0293 221.215 35.072C220.277 35.072 219.317 35.0933 218.335 35.136C217.226 35.1787 216.01 35.2213 214.687 35.264L212.511 47.04L221.855 45.568L221.215 52.864L200.543 56.064Z" fill="#007DB8"/>
<path fill-rule="evenodd" clip-rule="evenodd" d="M0 2.78335e-05L41 34.1414L82 0V81.9747H0V2.78335e-05Z" fill="#36BFB6"/>
<path fill-rule="evenodd" clip-rule="evenodd" d="M0 2.78335e-05L41 34.1414L82 0V81.9747H0V2.78335e-05Z" fill="url(#paint0_linear)"/>
<defs>
<linearGradient id="paint0_linear" x1="0" y1="0" x2="82" y2="82" gradientUnits="userSpaceOnUse">
<stop offset="0.119792" stop-color="#007DB8"/>
<stop offset="1" stop-color="white" stop-opacity="0"/>
</linearGradient>
</defs>
</svg>
